<svg xmlns="http://www.w3.org/2000/svg" width="458.55" height="451.16" viewBox="0 0 458.55 451.16">
    <defs>
        <style>
            .a,.b{fill:none;stroke-linecap:round;stroke-linejoin:round;stroke-width:45.86px;}.a{stroke:#F7FAFC;}.b{stroke:#48bb78;}
            @media (prefers-color-scheme: light) {
                .a{stroke:#1a202c;}
            }
        </style>
    </defs>
<path class="a" d="M453.59,123.05q-7.05.35-14.17.35A274.13,274.13,0,0,1,256,53.35,274.15,274.15,0,0,1,72.58,123.4q-7.12,0-14.17-.36a275.64,275.64,0,0,0-8.76,69.15c0,128.2,87.68,235.92,206.35,266.46,118.67-30.54,206.35-138.26,206.35-266.46A275.5,275.5,0,0,0,453.59,123.05Z" transform="translate(-26.72 -30.42)"/><polyline class="b" points="160.49 225.58 206.35 271.44 298.06 179.73"/></svg>